# Blender v2.73 (sub 0) OBJ File: 'bishop.blend'
# www.blender.org
mtllib bishop.mtl
g Icosphere.001
v 0.000000 2.641290 -0.009267
v 0.285556 2.600657 0.194389
v -0.109071 2.615284 0.315458
v -0.352967 2.557058 0.000909
v -0.109071 2.538698 -0.318456
v 0.285556 2.553325 -0.197387
v 0.103037 2.927193 0.259984
v -0.269759 2.913375 0.145613
v -0.269759 2.868661 -0.224490
v 0.103037 2.854844 -0.338860
v 0.265317 2.978723 -0.050034
v 0.000000 3.228112 -0.080164
v -0.060563 2.715121 0.160376
v 0.158559 2.706999 0.093151
v 0.103736 2.584153 0.303478
v 0.335690 2.539342 0.003049
v 0.158559 2.680717 -0.124388
v -0.195991 2.693859 -0.015618
v -0.271580 2.570243 0.188337
v -0.060563 2.672596 -0.191613
v -0.271580 2.525228 -0.184266
v 0.103736 2.511316 -0.299407
v 0.354552 2.746741 0.088350
v 0.354552 2.720459 -0.129190
v 0.000000 2.776126 0.331573
v 0.219125 2.768004 0.264348
v -0.354552 2.746741 0.088350
v -0.219125 2.768004 0.264348
v -0.219125 2.699196 -0.305188
v -0.354552 2.720459 -0.129190
v 0.219125 2.699196 -0.305188
v 0.000000 2.691074 -0.372412
v 0.256555 2.939918 0.133218
v -0.097997 2.953060 0.241989
v -0.248996 3.000573 -0.052674
v -0.097997 2.884252 -0.327543
v 0.256555 2.897393 -0.218772
v 0.060563 3.165329 0.105985
v 0.195991 3.144066 -0.070010
v -0.158559 3.157207 0.038760
v -0.158559 3.130926 -0.178780
v 0.060563 3.122804 -0.246005
vn 0.097400 -0.899400 0.426200
vn -0.669300 -0.740400 0.061900
vn -0.255800 -0.916500 0.307600
vn -0.255800 -0.963400 -0.080400
vn 0.097400 -0.975000 -0.199700
vn 0.926500 -0.212100 0.310700
vn 0.037600 -0.124800 0.991500
vn -0.895000 -0.192900 0.402200
vn -0.582400 -0.338200 -0.739200
vn 0.518700 -0.342700 -0.783300
vn 0.794600 0.063000 0.603800
vn -0.295200 0.105100 0.949600
vn -1.000000 -0.008900 0.001100
vn -0.295200 -0.124100 -0.947300
vn 0.794600 -0.082600 -0.601500
vn 0.514000 0.528600 0.675600
vn -0.504900 0.529100 0.682000
vn -0.886600 0.412400 -0.209500
vn -0.005400 0.326700 -0.945100
vn 0.909100 0.354800 -0.218200
vn 0.379500 0.837500 -0.393200
vn 0.655300 0.501500 -0.564800
vn 0.514000 0.352500 -0.782000
vn -0.144000 0.810700 -0.567400
vn -0.245600 0.455700 -0.855600
vn -0.504900 0.351500 -0.788400
vn -0.471000 0.875800 -0.105800
vn -0.847700 0.526600 -0.063600
vn -0.886600 0.450400 0.105300
vn -0.144000 0.922500 0.358000
vn -0.245600 0.646300 0.722400
vn -0.005400 0.542300 0.840100
vn 0.379500 0.907000 0.182400
vn 0.655300 0.621600 0.429100
vn 0.909100 0.396600 0.127400
vn 0.896000 0.380000 -0.229700
vn 0.779600 0.120700 -0.614500
vn 0.555300 0.242000 -0.795600
vn -0.023500 0.214800 -0.976400
vn -0.290000 0.074500 -0.954100
vn -0.515500 0.238000 -0.823200
vn -0.899900 0.391500 -0.191800
vn -0.930900 0.362700 -0.043800
vn -0.899900 0.426000 0.093100
vn -0.515500 0.427200 0.742800
vn -0.290000 0.299600 0.908900
vn -0.023500 0.441200 0.897100
vn 0.555300 0.424600 0.715100
vn 0.779600 0.263600 0.568100
vn 0.896000 0.423800 0.132600
vn 0.292900 0.011600 -0.956100
vn 0.293900 -0.209200 -0.932700
vn 0.037600 -0.357300 -0.933200
vn -0.787900 0.056500 -0.613100
vn -0.790800 -0.170200 -0.587900
vn -0.895000 -0.283100 -0.344700
vn -0.787900 0.200900 0.582000
vn -0.790800 -0.025300 0.611600
vn -0.582400 -0.152400 0.798500
vn 0.292900 0.239000 0.925800
vn 0.293900 0.018900 0.955700
vn 0.518700 -0.146300 0.842400
vn 0.940500 0.337400 -0.040800
vn 0.995400 -0.095300 0.011500
vn 0.926500 -0.280000 -0.251300
vn -0.248300 -0.656000 0.712700
vn -0.193800 -0.673900 0.713000
vn -0.150300 -0.650700 0.744300
vn 0.496900 -0.684900 0.533000
vn 0.513200 -0.710900 0.480800
vn 0.627600 -0.672900 0.391500
vn 0.627600 -0.746800 -0.220000
vn 0.513200 -0.805000 -0.297700
vn 0.496900 -0.792100 -0.354500
vn -0.669300 -0.733800 0.116200
vn -0.660100 -0.745800 0.090100
vn 0.316800 -0.941700 0.113800
vn -0.150300 -0.809200 -0.568000
vn -0.193800 -0.824300 -0.532000
vn -0.248400 -0.806900 -0.536000
g Icosphere.001_Icosphere.001_Material.001
usemtl Material.001
s off
f 1//1 14//1 13//1
f 2//2 14//2 16//2
f 1//3 13//3 18//3
f 1//4 18//4 20//4
f 1//5 20//5 17//5
f 2//6 16//6 23//6
f 3//7 15//7 25//7
f 4//8 19//8 27//8
f 5//9 21//9 29//9
f 6//10 22//10 31//10
f 2//11 23//11 26//11
f 3//12 25//12 28//12
f 4//13 27//13 30//13
f 5//14 29//14 32//14
f 6//15 31//15 24//15
f 7//16 33//16 38//16
f 8//17 34//17 40//17
f 9//18 35//18 41//18
f 10//19 36//19 42//19
f 11//20 37//20 39//20
f 39//21 42//21 12//21
f 39//22 37//22 42//22
f 37//23 10//23 42//23
f 42//24 41//24 12//24
f 42//25 36//25 41//25
f 36//26 9//26 41//26
f 41//27 40//27 12//27
f 41//28 35//28 40//28
f 35//29 8//29 40//29
f 40//30 38//30 12//30
f 40//31 34//31 38//31
f 34//32 7//32 38//32
f 38//33 39//33 12//33
f 38//34 33//34 39//34
f 33//35 11//35 39//35
f 24//36 37//36 11//36
f 24//37 31//37 37//37
f 31//38 10//38 37//38
f 32//39 36//39 10//39
f 32//40 29//40 36//40
f 29//41 9//41 36//41
f 30//42 35//42 9//42
f 30//43 27//43 35//43
f 27//44 8//44 35//44
f 28//45 34//45 8//45
f 28//46 25//46 34//46
f 25//47 7//47 34//47
f 26//48 33//48 7//48
f 26//49 23//49 33//49
f 23//50 11//50 33//50
f 31//51 32//51 10//51
f 31//52 22//52 32//52
f 22//53 5//53 32//53
f 29//54 30//54 9//54
f 29//55 21//55 30//55
f 21//56 4//56 30//56
f 27//57 28//57 8//57
f 27//58 19//58 28//58
f 19//59 3//59 28//59
f 25//60 26//60 7//60
f 25//61 15//61 26//61
f 15//62 2//62 26//62
f 23//63 24//63 11//63
f 23//64 16//64 24//64
f 16//65 6//65 24//65
f 17//66 22//66 6//66
f 17//67 20//67 22//67
f 20//68 5//68 22//68
f 20//69 21//69 5//69
f 20//70 18//70 21//70
f 18//71 4//71 21//71
f 18//72 19//72 4//72
f 18//73 13//73 19//73
f 13//74 3//74 19//74
f 16//75 17//75 6//75
f 16//76 14//76 17//76
f 14//77 1//77 17//77
f 13//78 15//78 3//78
f 13//79 14//79 15//79
f 14//80 2//80 15//80
g Cube
v -0.327104 1.091828 0.402701
v -0.327104 1.091828 -0.391613
v 0.327104 1.091828 -0.391613
v 0.327104 1.091828 0.402701
v -0.312942 1.462688 0.385506
v -0.312942 1.462688 -0.374418
v 0.312942 1.462688 -0.374418
v 0.312942 1.462688 0.385506
v -0.185127 2.106694 0.230318
v -0.185127 2.106694 -0.219230
v 0.185127 2.106694 -0.219230
v 0.185127 2.106694 0.230318
v -0.305553 0.265340 0.376535
v -0.305553 0.265340 -0.365447
v 0.305553 0.265340 -0.365447
v 0.305553 0.265340 0.376535
v -0.346441 0.023109 0.426180
v -0.346441 0.023109 -0.415092
v 0.346441 0.023109 -0.415092
v 0.346441 0.023109 0.426180
v -0.320023 1.277258 0.394104
v -0.479318 1.462688 0.005544
v -0.320023 1.277258 -0.383016
v -0.501010 1.091828 0.005544
v 0.320023 1.277258 -0.383016
v 0.479318 1.462688 0.005544
v 0.320023 1.277258 0.394104
v 0.501010 1.091828 0.005544
v -0.283551 2.106694 0.005544
v 0.000000 2.106694 -0.219230
v 0.283551 2.106694 0.005544
v 0.000000 2.106694 0.230318
v -0.249035 1.784691 0.307912
v 0.249035 1.784691 0.307912
v 0.249035 1.784691 -0.296824
v -0.249035 1.784691 -0.296824
v -0.468002 0.265340 0.005544
v 0.468002 0.265340 0.005544
v 0.316329 0.678584 0.389618
v -0.316329 0.678584 0.389618
v 0.316329 0.678584 -0.378530
v -0.316329 0.678584 -0.378530
v -0.530628 0.023109 0.005544
v 0.000000 0.023109 -0.415092
v 0.530628 0.023109 0.005544
v 0.000000 0.023109 0.426180
v 0.325997 0.144224 0.401357
v -0.325997 0.144224 0.401357
v 0.325997 0.144224 -0.390269
v -0.325997 0.144224 -0.390269
v -0.499315 0.144224 0.005544
v 0.499315 0.144224 0.005544
v 0.000000 0.023109 0.005544
v -0.484506 0.678584 0.005544
v 0.484506 0.678584 0.005544
v -0.381435 1.784691 0.005544
v 0.381435 1.784691 0.005544
v 0.000000 2.106694 0.005544
v 0.490164 1.277258 0.005544
v -0.490164 1.277258 0.005544
vn -0.914700 0.053500 -0.400500
vn 0.000000 0.046300 -0.998900
vn 0.914700 0.053500 0.400500
vn 0.000000 0.046300 0.998900
vn 0.000000 -0.031600 0.999500
vn 0.000000 0.234300 0.972200
vn 0.000000 1.000000 0.000000
vn 0.882500 0.268300 -0.386400
vn 0.000000 0.234300 -0.972200
vn -0.882500 0.268300 0.386400
vn 0.000000 0.200800 0.979600
vn 0.915400 -0.036600 0.400800
vn 0.000000 -0.031600 -0.999500
vn -0.915400 -0.036600 -0.400800
vn 0.000000 -1.000000 0.000000
vn 0.891400 0.230500 0.390300
vn 0.000000 0.200800 -0.979600
vn -0.891400 0.230500 -0.390300
vn -0.891400 0.230500 0.390300
vn 0.891400 0.230500 -0.390300
vn -0.915400 -0.036600 0.400800
vn 0.915400 -0.036600 -0.400800
vn -0.882500 0.268300 -0.386400
vn 0.882500 0.268300 0.386400
vn 0.914700 0.053500 -0.400500
vn -0.914700 0.053500 0.400500
g Cube_Cube_Material
usemtl Material
s off
f 65//81 44//81 66//81
f 67//82 45//82 44//82
f 69//83 46//83 70//83
f 63//84 43//84 46//84
f 82//85 55//85 58//85
f 74//86 76//86 54//86
f 100//87 72//87 52//87
f 99//88 77//88 53//88
f 72//89 78//89 52//89
f 98//90 75//90 51//90
f 88//91 90//91 59//91
f 97//92 81//92 58//92
f 83//93 57//93 56//93
f 96//94 84//94 56//94
f 95//95 86//95 61//95
f 89//96 62//96 87//96
f 86//97 91//97 61//97
f 92//98 60//98 85//98
f 90//99 93//99 85//99
f 55//99 79//99 93//99
f 56//98 92//98 93//98
f 92//97 91//97 86//97
f 92//97 86//97 60//97
f 57//97 91//97 92//97
f 91//100 94//100 87//100
f 57//100 80//100 94//100
f 58//96 89//96 94//96
f 95//95 87//95 62//95
f 59//95 85//95 95//95
f 60//95 86//95 95//95
f 96//101 79//101 55//101
f 66//101 96//101 82//101
f 66//94 44//94 84//94
f 45//93 83//93 84//93
f 97//102 80//102 57//102
f 70//102 97//102 83//102
f 70//92 46//92 81//92
f 89//91 90//91 88//91
f 89//91 88//91 62//91
f 55//91 90//91 89//91
f 98//103 71//103 52//103
f 64//103 98//103 78//103
f 64//90 47//90 75//90
f 77//89 78//89 72//89
f 77//89 72//89 53//89
f 48//89 78//89 77//89
f 99//104 73//104 54//104
f 68//104 99//104 76//104
f 68//88 49//88 77//88
f 100//87 71//87 51//87
f 54//87 73//87 100//87
f 53//87 72//87 100//87
f 75//86 76//86 74//86
f 75//86 74//86 51//86
f 50//86 76//86 75//86
f 43//85 82//85 81//85
f 47//84 63//84 69//84
f 67//105 101//105 70//105
f 49//105 68//105 101//105
f 50//83 69//83 101//83
f 49//82 67//82 65//82
f 63//106 102//106 66//106
f 47//106 64//106 102//106
f 48//81 65//81 102//81
f 102//81 65//81 66//81
f 65//82 67//82 44//82
f 101//83 69//83 70//83
f 69//84 63//84 46//84
f 81//85 82//85 58//85
f 71//87 100//87 52//87
f 73//88 99//88 53//88
f 71//90 98//90 51//90
f 80//92 97//92 58//92
f 84//93 83//93 56//93
f 79//94 96//94 56//94
f 87//95 95//95 61//95
f 94//96 89//96 87//96
f 93//98 92//98 85//98
f 59//99 90//99 85//99
f 90//99 55//99 93//99
f 79//98 56//98 93//98
f 56//97 57//97 92//97
f 61//100 91//100 87//100
f 91//100 57//100 94//100
f 80//96 58//96 94//96
f 88//95 95//95 62//95
f 88//95 59//95 95//95
f 85//95 60//95 95//95
f 82//101 96//101 55//101
f 43//101 66//101 82//101
f 96//94 66//94 84//94
f 44//93 45//93 84//93
f 83//102 97//102 57//102
f 45//102 70//102 83//102
f 97//92 70//92 81//92
f 58//91 55//91 89//91
f 78//103 98//103 52//103
f 48//103 64//103 78//103
f 98//90 64//90 75//90
f 49//89 48//89 77//89
f 76//104 99//104 54//104
f 50//104 68//104 76//104
f 99//88 68//88 77//88
f 74//87 100//87 51//87
f 74//87 54//87 100//87
f 73//87 53//87 100//87
f 47//86 50//86 75//86
f 46//85 43//85 81//85
f 50//84 47//84 69//84
f 45//105 67//105 70//105
f 67//105 49//105 101//105
f 68//83 50//83 101//83
f 48//82 49//82 65//82
f 43//106 63//106 66//106
f 63//106 47//106 102//106
f 64//81 48//81 102//81
g Icosphere
v 0.000000 2.055314 0.005544
v 0.269759 2.251303 0.191941
v -0.103037 2.251303 0.307144
v -0.333440 2.251305 0.005544
v -0.103037 2.251303 -0.296056
v 0.269759 2.251303 -0.180853
v 0.103037 2.568429 0.307144
v -0.269759 2.568429 0.191941
v -0.269759 2.568429 -0.180853
v 0.103037 2.568429 -0.296056
v 0.333440 2.568427 0.005544
v 0.000000 2.764418 0.005544
v -0.060563 2.108264 0.182818
v 0.158559 2.108264 0.115105
v 0.097997 2.223464 0.292381
v 0.317120 2.223465 0.005544
v 0.158559 2.108264 -0.104017
v -0.195991 2.108265 0.005544
v -0.256555 2.223465 0.182819
v -0.060563 2.108264 -0.171730
v -0.256555 2.223465 -0.171731
v 0.097997 2.223464 -0.281293
v 0.354552 2.409866 0.115105
v 0.354552 2.409866 -0.104017
v 0.000000 2.409866 0.360096
v 0.219125 2.409866 0.292383
v -0.354552 2.409866 0.115105
v -0.219125 2.409866 0.292383
v -0.219125 2.409866 -0.281295
v -0.354552 2.409866 -0.104017
v 0.219125 2.409866 -0.281295
v 0.000000 2.409866 -0.349008
v 0.256555 2.596267 0.182819
v -0.097997 2.596267 0.292381
v -0.317120 2.596267 0.005544
v -0.097997 2.596267 -0.281293
v 0.256555 2.596267 -0.171731
v 0.060563 2.711467 0.182818
v 0.195991 2.711466 0.005544
v -0.158559 2.711467 0.115105
v -0.158559 2.711467 -0.104017
v 0.060563 2.711467 -0.171730
vn 0.097400 -0.944000 0.315200
vn 0.682100 -0.677800 0.274500
vn -0.255800 -0.946800 0.195400
vn -0.255800 -0.946800 -0.195400
vn 0.097400 -0.944000 -0.315200
vn 0.896500 -0.344100 0.279200
vn 0.023500 -0.330400 0.943500
vn -0.880100 -0.343600 0.327700
vn -0.555300 -0.335700 -0.760900
vn 0.515500 -0.335000 -0.788700
vn 0.787900 -0.129700 0.601900
vn -0.292900 -0.126200 0.947800
vn -0.991300 -0.132000 0.000000
vn -0.292900 -0.126200 -0.947800
vn 0.787900 -0.129700 -0.601900
vn 0.392100 0.667000 0.633500
vn -0.453100 0.668800 0.589400
vn -0.682100 0.677800 -0.274500
vn 0.036600 0.661700 -0.748800
vn 0.706500 0.678900 -0.199800
vn 0.255800 0.946800 -0.195400
vn 0.472600 0.804000 -0.361000
vn 0.392100 0.667000 -0.633500
vn -0.097400 0.944000 -0.315300
vn -0.178700 0.796000 -0.578300
vn -0.453100 0.668800 -0.589400
vn -0.316800 0.948500 0.000000
vn -0.587800 0.809000 0.000000
vn -0.682100 0.677800 0.274500
vn -0.097400 0.944000 0.315200
vn -0.178700 0.796000 0.578300
vn 0.036600 0.661700 0.748800
vn 0.255800 0.946800 0.195400
vn 0.472600 0.804000 0.361000
vn 0.706500 0.678900 0.199800
vn 0.880100 0.343600 -0.327700
vn 0.779600 0.193500 -0.595600
vn 0.555300 0.335700 -0.760900
vn -0.023500 0.330400 -0.943500
vn -0.290000 0.188400 -0.938300
vn -0.515500 0.335000 -0.788700
vn -0.896500 0.344100 -0.279200
vn -0.980400 0.196900 0.000000
vn -0.896500 0.344100 0.279200
vn -0.515500 0.335000 0.788700
vn -0.290000 0.188400 0.938300
vn -0.023500 0.330400 0.943500
vn 0.555300 0.335700 0.760900
vn 0.779600 0.193500 0.595600
vn 0.880100 0.343600 0.327700
vn 0.292900 0.126200 -0.947800
vn 0.290000 -0.188400 -0.938300
vn 0.023500 -0.330400 -0.943500
vn -0.787900 0.129700 -0.601900
vn -0.779600 -0.193500 -0.595600
vn -0.880100 -0.343600 -0.327700
vn -0.787900 0.129700 0.601900
vn -0.779600 -0.193500 0.595600
vn -0.555300 -0.335700 0.760900
vn 0.292900 0.126200 0.947800
vn 0.290000 -0.188400 0.938300
vn 0.515500 -0.335000 0.788700
vn 0.991300 0.132000 0.000000
vn 0.980400 -0.196900 0.000000
vn 0.896500 -0.344100 -0.279200
vn 0.453100 -0.668800 -0.589400
vn 0.178700 -0.796000 -0.578300
vn -0.036600 -0.661700 -0.748800
vn -0.392100 -0.667000 -0.633500
vn -0.472600 -0.804000 -0.361000
vn -0.706500 -0.678900 -0.199800
vn -0.706500 -0.678900 0.199800
vn -0.472600 -0.804000 0.361000
vn -0.392100 -0.667000 0.633500
vn 0.682100 -0.677800 -0.274500
vn 0.587800 -0.809000 0.000000
vn 0.316800 -0.948500 0.000000
vn -0.036600 -0.661700 0.748800
vn 0.178700 -0.796000 0.578300
vn 0.453100 -0.668800 0.589400
g Icosphere_Icosphere_Material.001
usemtl Material.001
s off
f 103//107 116//107 115//107
f 104//108 116//108 118//108
f 103//109 115//109 120//109
f 103//110 120//110 122//110
f 103//111 122//111 119//111
f 104//112 118//112 125//112
f 105//113 117//113 127//113
f 106//114 121//114 129//114
f 107//115 123//115 131//115
f 108//116 124//116 133//116
f 104//117 125//117 128//117
f 105//118 127//118 130//118
f 106//119 129//119 132//119
f 107//120 131//120 134//120
f 108//121 133//121 126//121
f 109//122 135//122 140//122
f 110//123 136//123 142//123
f 111//124 137//124 143//124
f 112//125 138//125 144//125
f 113//126 139//126 141//126
f 141//127 144//127 114//127
f 141//128 139//128 144//128
f 139//129 112//129 144//129
f 144//130 143//130 114//130
f 144//131 138//131 143//131
f 138//132 111//132 143//132
f 143//133 142//133 114//133
f 143//134 137//134 142//134
f 137//135 110//135 142//135
f 142//136 140//136 114//136
f 142//137 136//137 140//137
f 136//138 109//138 140//138
f 140//139 141//139 114//139
f 140//140 135//140 141//140
f 135//141 113//141 141//141
f 126//142 139//142 113//142
f 126//143 133//143 139//143
f 133//144 112//144 139//144
f 134//145 138//145 112//145
f 134//146 131//146 138//146
f 131//147 111//147 138//147
f 132//148 137//148 111//148
f 132//149 129//149 137//149
f 129//150 110//150 137//150
f 130//151 136//151 110//151
f 130//152 127//152 136//152
f 127//153 109//153 136//153
f 128//154 135//154 109//154
f 128//155 125//155 135//155
f 125//156 113//156 135//156
f 133//157 134//157 112//157
f 133//158 124//158 134//158
f 124//159 107//159 134//159
f 131//160 132//160 111//160
f 131//161 123//161 132//161
f 123//162 106//162 132//162
f 129//163 130//163 110//163
f 129//164 121//164 130//164
f 121//165 105//165 130//165
f 127//166 128//166 109//166
f 127//167 117//167 128//167
f 117//168 104//168 128//168
f 125//169 126//169 113//169
f 125//170 118//170 126//170
f 118//171 108//171 126//171
f 119//172 124//172 108//172
f 119//173 122//173 124//173
f 122//174 107//174 124//174
f 122//175 123//175 107//175
f 122//176 120//176 123//176
f 120//177 106//177 123//177
f 120//178 121//178 106//178
f 120//179 115//179 121//179
f 115//180 105//180 121//180
f 118//181 119//181 108//181
f 118//182 116//182 119//182
f 116//183 103//183 119//183
f 115//184 117//184 105//184
f 115//185 116//185 117//185
f 116//186 104//186 117//186
