# Blender v2.73 (sub 0) OBJ File: 'pawn.blend'
# www.blender.org
mtllib pawn.mtl
g Cube
v -0.474809 0.659556 0.474809
v -0.474809 0.659556 -0.474809
v 0.474809 0.659556 -0.474809
v 0.474809 0.659556 0.474809
v -0.454251 0.885562 0.454251
v -0.454251 0.885562 -0.454251
v 0.454251 0.885562 -0.454251
v 0.454251 0.885562 0.454251
v -0.268722 1.278025 0.268722
v -0.268722 1.278025 -0.268722
v 0.268722 1.278025 -0.268722
v 0.268722 1.278025 0.268722
v -0.443526 0.155887 0.443526
v -0.443526 0.155887 -0.443526
v 0.443526 0.155887 -0.443526
v 0.443526 0.155887 0.443526
v -0.502878 0.008269 0.502878
v -0.502878 0.008269 -0.502878
v 0.502878 0.008269 -0.502878
v 0.502878 0.008269 0.502878
vn -0.995900 0.090600 0.000000
vn 0.000000 0.090600 -0.995900
vn 0.995900 0.090600 0.000000
vn 0.000000 0.090600 0.995900
vn 0.000000 -0.062000 0.998100
vn 0.000000 0.427400 0.904100
vn 0.000000 1.000000 0.000000
vn 0.904100 0.427400 0.000000
vn 0.000000 0.427400 -0.904100
vn -0.904100 0.427400 0.000000
vn 0.000000 0.373000 0.927800
vn 0.998100 -0.062000 0.000000
vn 0.000000 -0.062000 -0.998100
vn -0.998100 -0.062000 0.000000
vn 0.000000 -1.000000 0.000000
vn 0.927800 0.373000 0.000000
vn 0.000000 0.373000 -0.927800
vn -0.927800 0.373000 0.000000
g Cube_Cube_Material
usemtl Material
s off
f 6//1 2//1 1//1
f 7//2 3//2 2//2
f 8//3 4//3 3//3
f 5//4 1//4 4//4
f 1//5 13//5 16//5
f 8//6 12//6 9//6
f 11//7 10//7 9//7
f 7//8 11//8 12//8
f 6//9 10//9 11//9
f 5//10 9//10 10//10
f 13//11 17//11 20//11
f 4//12 16//12 15//12
f 3//13 15//13 14//13
f 2//14 14//14 13//14
f 18//15 19//15 20//15
f 16//16 20//16 19//16
f 15//17 19//17 18//17
f 14//18 18//18 17//18
f 5//1 6//1 1//1
f 6//2 7//2 2//2
f 7//3 8//3 3//3
f 8//4 5//4 4//4
f 4//5 1//5 16//5
f 5//6 8//6 9//6
f 12//7 11//7 9//7
f 8//8 7//8 12//8
f 7//9 6//9 11//9
f 6//10 5//10 10//10
f 16//11 13//11 20//11
f 3//12 4//12 15//12
f 2//13 3//13 14//13
f 1//14 2//14 13//14
f 17//15 18//15 20//15
f 15//16 16//16 19//16
f 14//17 15//17 18//17
f 13//18 14//18 17//18
g Icosphere
v 0.000000 1.193537 0.000000
v 0.322502 1.427846 0.222841
v -0.123182 1.427846 0.360568
v -0.398634 1.427848 0.000000
v -0.123182 1.427846 -0.360568
v 0.322502 1.427846 -0.222841
v 0.123182 1.806975 0.360568
v -0.322502 1.806975 0.222841
v -0.322502 1.806975 -0.222841
v 0.123182 1.806975 -0.360568
v 0.398634 1.806974 0.000000
v 0.000000 2.041284 0.000000
v -0.072404 1.256841 0.211935
v 0.189561 1.256841 0.130982
v 0.117157 1.394565 0.342919
v 0.379122 1.394565 0.000000
v 0.189561 1.256841 -0.130982
v -0.234311 1.256842 0.000000
v -0.306717 1.394565 0.211936
v -0.072404 1.256841 -0.211935
v -0.306717 1.394565 -0.211936
v 0.117157 1.394565 -0.342919
v 0.423874 1.617411 0.130982
v 0.423874 1.617411 -0.130982
v 0.000000 1.617411 0.423874
v 0.261968 1.617411 0.342921
v -0.423874 1.617411 0.130982
v -0.261968 1.617411 0.342921
v -0.261968 1.617411 -0.342921
v -0.423874 1.617411 -0.130982
v 0.261968 1.617411 -0.342921
v 0.000000 1.617411 -0.423874
v 0.306717 1.840256 0.211936
v -0.117157 1.840257 0.342919
v -0.379122 1.840256 0.000000
v -0.117157 1.840257 -0.342919
v 0.306717 1.840256 -0.211936
v 0.072404 1.977981 0.211935
v 0.234311 1.977980 0.000000
v -0.189561 1.977981 0.130982
v -0.189561 1.977981 -0.130982
v 0.072404 1.977981 -0.211935
vn 0.097400 -0.944000 0.315200
vn 0.682100 -0.677800 0.274500
vn -0.255800 -0.946800 0.195400
vn -0.255800 -0.946800 -0.195400
vn 0.097400 -0.944000 -0.315200
vn 0.896500 -0.344100 0.279200
vn 0.023500 -0.330400 0.943500
vn -0.880100 -0.343600 0.327700
vn -0.555300 -0.335700 -0.760900
vn 0.515500 -0.335000 -0.788700
vn 0.787900 -0.129700 0.601900
vn -0.292900 -0.126200 0.947800
vn -0.991300 -0.132000 0.000000
vn -0.292900 -0.126200 -0.947800
vn 0.787900 -0.129700 -0.601900
vn 0.392100 0.667000 0.633500
vn -0.453100 0.668800 0.589400
vn -0.682100 0.677800 -0.274500
vn 0.036600 0.661700 -0.748800
vn 0.706500 0.678900 -0.199800
vn 0.255800 0.946800 -0.195400
vn 0.472600 0.804000 -0.361000
vn 0.392100 0.667000 -0.633500
vn -0.097400 0.944000 -0.315200
vn -0.178700 0.796000 -0.578300
vn -0.453100 0.668800 -0.589400
vn -0.316800 0.948500 0.000000
vn -0.587800 0.809000 0.000000
vn -0.682100 0.677800 0.274500
vn -0.097400 0.944000 0.315200
vn -0.178700 0.796000 0.578300
vn 0.036600 0.661700 0.748800
vn 0.255800 0.946800 0.195400
vn 0.472600 0.804000 0.361000
vn 0.706500 0.678900 0.199800
vn 0.880100 0.343600 -0.327700
vn 0.779600 0.193500 -0.595600
vn 0.555300 0.335700 -0.760900
vn -0.023500 0.330400 -0.943500
vn -0.290000 0.188400 -0.938300
vn -0.515500 0.335000 -0.788700
vn -0.896500 0.344100 -0.279200
vn -0.980400 0.196900 0.000000
vn -0.896500 0.344100 0.279200
vn -0.515500 0.335000 0.788700
vn -0.290000 0.188400 0.938300
vn -0.023500 0.330400 0.943500
vn 0.555300 0.335700 0.760900
vn 0.779600 0.193500 0.595600
vn 0.880100 0.343600 0.327700
vn 0.292900 0.126200 -0.947800
vn 0.290000 -0.188400 -0.938300
vn 0.023500 -0.330400 -0.943500
vn -0.787900 0.129700 -0.601900
vn -0.779600 -0.193500 -0.595600
vn -0.880100 -0.343600 -0.327700
vn -0.787900 0.129700 0.601900
vn -0.779600 -0.193500 0.595600
vn -0.555300 -0.335700 0.760900
vn 0.292900 0.126200 0.947800
vn 0.290000 -0.188400 0.938300
vn 0.515500 -0.335000 0.788700
vn 0.991300 0.132000 0.000000
vn 0.980400 -0.196900 0.000000
vn 0.896500 -0.344100 -0.279200
vn 0.453100 -0.668800 -0.589400
vn 0.178700 -0.796000 -0.578300
vn -0.036600 -0.661700 -0.748800
vn -0.392100 -0.667000 -0.633500
vn -0.472600 -0.804000 -0.361000
vn -0.706500 -0.678900 -0.199800
vn -0.706500 -0.678900 0.199800
vn -0.472600 -0.804000 0.361000
vn -0.392100 -0.667000 0.633500
vn 0.682100 -0.677800 -0.274500
vn 0.587800 -0.809000 0.000000
vn 0.316800 -0.948500 0.000000
vn -0.036600 -0.661700 0.748800
vn 0.178700 -0.796000 0.578300
vn 0.453100 -0.668800 0.589400
g Icosphere_Icosphere_Material.001
usemtl Material.001
s off
f 21//19 34//19 33//19
f 22//20 34//20 36//20
f 21//21 33//21 38//21
f 21//22 38//22 40//22
f 21//23 40//23 37//23
f 22//24 36//24 43//24
f 23//25 35//25 45//25
f 24//26 39//26 47//26
f 25//27 41//27 49//27
f 26//28 42//28 51//28
f 22//29 43//29 46//29
f 23//30 45//30 48//30
f 24//31 47//31 50//31
f 25//32 49//32 52//32
f 26//33 51//33 44//33
f 27//34 53//34 58//34
f 28//35 54//35 60//35
f 29//36 55//36 61//36
f 30//37 56//37 62//37
f 31//38 57//38 59//38
f 59//39 62//39 32//39
f 59//40 57//40 62//40
f 57//41 30//41 62//41
f 62//42 61//42 32//42
f 62//43 56//43 61//43
f 56//44 29//44 61//44
f 61//45 60//45 32//45
f 61//46 55//46 60//46
f 55//47 28//47 60//47
f 60//48 58//48 32//48
f 60//49 54//49 58//49
f 54//50 27//50 58//50
f 58//51 59//51 32//51
f 58//52 53//52 59//52
f 53//53 31//53 59//53
f 44//54 57//54 31//54
f 44//55 51//55 57//55
f 51//56 30//56 57//56
f 52//57 56//57 30//57
f 52//58 49//58 56//58
f 49//59 29//59 56//59
f 50//60 55//60 29//60
f 50//61 47//61 55//61
f 47//62 28//62 55//62
f 48//63 54//63 28//63
f 48//64 45//64 54//64
f 45//65 27//65 54//65
f 46//66 53//66 27//66
f 46//67 43//67 53//67
f 43//68 31//68 53//68
f 51//69 52//69 30//69
f 51//70 42//70 52//70
f 42//71 25//71 52//71
f 49//72 50//72 29//72
f 49//73 41//73 50//73
f 41//74 24//74 50//74
f 47//75 48//75 28//75
f 47//76 39//76 48//76
f 39//77 23//77 48//77
f 45//78 46//78 27//78
f 45//79 35//79 46//79
f 35//80 22//80 46//80
f 43//81 44//81 31//81
f 43//82 36//82 44//82
f 36//83 26//83 44//83
f 37//84 42//84 26//84
f 37//85 40//85 42//85
f 40//86 25//86 42//86
f 40//87 41//87 25//87
f 40//88 38//88 41//88
f 38//89 24//89 41//89
f 38//90 39//90 24//90
f 38//91 33//91 39//91
f 33//92 23//92 39//92
f 36//93 37//93 26//93
f 36//94 34//94 37//94
f 34//95 21//95 37//95
f 33//96 35//96 23//96
f 33//97 34//97 35//97
f 34//98 22//98 35//98
